<?xml version="1.0" encoding="UTF-8"?>
<svg id="Layer_2" data-name="Layer 2" xmlns="http://www.w3.org/2000/svg" viewBox="0 0 548.42 206.85">
  <defs>
    <style>
      .cls-1 {
        fill: #37b34a;
      }

      .cls-2 {
        fill: none;
        stroke: #006838;
        stroke-linejoin: round;
        stroke-width: 3px;
      }
    </style>
  </defs>
  <g id="Layer_1-2" data-name="Layer 1">
    <g>
      <path class="cls-2" d="m124.71,47.04c21.29,9.48,29.6,9.77,58.42-2.22,56.04,25.84,215.34,29.07,277.97-.67"/>
      <g>
        <path class="cls-1" d="m152.9,135.36l9.8,11.31c-4.83,6.34-15.24,12.52-30.62,12.52-23.98,0-38.32-15.08-38.32-36.51s14.33-36.5,36.35-36.5c20.82,0,32.73,14.18,32.73,33.64,0,4.53-.6,7.54-.6,7.54h-47.97c1.81,9.5,8.45,16.14,20.21,16.14,10.11,0,15.39-4.83,18.4-8.15Zm-38.62-18.71h29.72c-.15-8.45-5.28-14.78-13.88-14.78-8.15,0-14.33,5.28-15.84,14.78Z"/>
        <path class="cls-1" d="m172.66,42.51h20.67v115.77h-20.67V42.51Z"/>
        <path class="cls-1" d="m261.96,135.36l9.8,11.31c-4.83,6.34-15.24,12.52-30.62,12.52-23.98,0-38.32-15.08-38.32-36.51s14.33-36.5,36.35-36.5c20.82,0,32.73,14.18,32.73,33.64,0,4.53-.6,7.54-.6,7.54h-47.97c1.81,9.5,8.45,16.14,20.21,16.14,10.11,0,15.39-4.83,18.4-8.15Zm-38.62-18.71h29.72c-.15-8.45-5.28-14.78-13.88-14.78-8.15,0-14.33,5.28-15.84,14.78Z"/>
        <path class="cls-1" d="m356.09,122.69c0,23.23-14.03,36.51-32.58,36.51-10.11,0-17.05-4.07-21.12-9.81v39.67h-20.67v-101.97l16.29-.6c1.51,4.37,2.56,12.07,2.41,14.03h.45c3.77-8.3,11.16-14.33,23.68-14.33,19.31,0,31.53,15.24,31.53,36.5Zm-20.97,0c0-11.62-6.33-19.16-16.29-19.16s-16.44,8.45-16.44,16.74v4.83c0,7.84,5.88,16.74,16.89,16.74,9.65,0,15.84-7.54,15.84-19.16Z"/>
        <path class="cls-1" d="m438.75,122.69c0,21.42-14.93,36.51-37.41,36.51s-37.56-15.08-37.56-36.51,14.93-36.5,37.56-36.5,37.41,15.08,37.41,36.5Zm-20.97,0c0-11.46-6.34-19.61-16.44-19.61s-16.59,8.15-16.59,19.61,6.34,19.61,16.59,19.61,16.44-8,16.44-19.61Z"/>
        <path class="cls-1" d="m447.8,41.26h20.67v117.02h-20.67V41.26Z"/>
        <path class="cls-1" d="m537.1,135.36l9.8,11.31c-4.83,6.34-15.24,12.52-30.62,12.52-23.98,0-38.32-15.08-38.32-36.51s14.33-36.5,36.35-36.5c20.82,0,32.73,14.18,32.73,33.64,0,4.53-.6,7.54-.6,7.54h-47.97c1.81,9.5,8.45,16.14,20.21,16.14,10.11,0,15.39-4.83,18.4-8.15Zm-38.62-18.71h29.72c-.15-8.45-5.28-14.78-13.88-14.78-8.15,0-14.33,5.28-15.84,14.78Z"/>
      </g>
      <path class="cls-1" d="m81,35.46s-.32-20.98-.32-31.66c-12.4-7.46-30.04-1.62-30.04-1.62l-.13,28.02L4.93,21.89l-4.93,1.81.1,19.35,7.55,1.33,42.45,40.79v68.22c9.69,4.1,20.94,4.3,30.11-.09,0-22.2.06-63.95.06-63.95l39.01-25.38,6.02,1.19,4.79-1.82v-19.19l-49.09-8.7Zm-30.5,29.69l-16.19-15.95,16.19,2.77v13.18Zm30.34,7.55v-15.52l18.4,3.23-18.4,12.29Z"/>
    </g>
  </g>
</svg>