<?xml version="1.0" encoding="UTF-8"?>
<svg id="Layer_2" data-name="Layer 2" xmlns="http://www.w3.org/2000/svg" viewBox="0 0 227.07 175.81">
  <defs>
    <style>
      .cls-1 {
        fill: #37b34a;
      }
    </style>
  </defs>
  <g id="Layer_1-2" data-name="Layer 1">
    <g>
      <path class="cls-1" d="m97.61,99.17c.02-3.36.03-6.7.05-10.02l-12.23-2.16,12.18,12.17Z"/>
      <path class="cls-1" d="m150.36,98.45l-14.56-2.57c.04,3.99.07,8,.1,12.02l14.46-9.46Z"/>
      <path class="cls-1" d="m51.15,66.04l-.02-4.42,4.93-1.81,41.72,7.36c0-1.42.01-2.84.02-4.24l.03-5.39c.01-2.42.03-4.82.04-7.18l.04-7.49v-.48s0-.04,0-.04c0,0,0,0,0,0,0-.09.01-.17.03-.26,0,0,0,0,0-.01,0-.02.01-.04.02-.06,0-.03.02-.07.03-.1.03-.08.06-.16.11-.24.01-.02.02-.04.03-.06,0,0,0-.01.01-.02,0,0,.01-.01.02-.02.06-.09.13-.19.21-.28.01-.01.02-.03.04-.04.02-.02.04-.04.07-.07.02-.02.05-.05.07-.07.06-.06.12-.12.19-.18.03-.03.07-.06.11-.09.05-.04.1-.08.16-.13,0,0,0,0,0,0,.04-.03.1-.06.14-.09.05-.03.1-.06.15-.1.1-.06.21-.13.33-.19.04-.02.08-.04.12-.07.03-.02.05-.03.08-.05.19-.1.39-.19.61-.29.03-.01.06-.02.09-.04.04-.02.09-.03.13-.05.16-.07.32-.13.49-.19.04-.01.07-.03.11-.04.04-.01.08-.03.11-.04.07-.02.13-.05.2-.07,0,0,0,0,.01,0,.2-.07.4-.13.61-.2.02,0,.03-.01.05-.02,0,0,0,0,.01,0,.12-.04.25-.07.38-.11.07-.02.14-.04.21-.06.07-.02.13-.04.2-.06,0,0,.02,0,.02,0,.17-.05.35-.09.53-.13.08-.02.15-.04.23-.06,0,0,0,0,.01,0,.06-.01.12-.03.18-.04.06-.01.12-.03.18-.04.13-.03.26-.06.39-.09.01,0,.03,0,.05,0,.06-.01.13-.03.19-.04.16-.03.32-.07.49-.1.09-.02.18-.03.27-.05.15-.03.3-.05.44-.08.23-.04.47-.08.71-.12.13-.02.26-.04.38-.06.04,0,.09-.01.13-.02.06,0,.11-.02.17-.02.23-.03.46-.06.69-.09.22-.03.44-.06.67-.08.02,0,.04,0,.07,0,.02,0,.05,0,.07,0,.18-.02.36-.04.54-.06.21-.02.42-.04.63-.06.15-.01.31-.03.46-.04.03,0,.05,0,.08,0,.03,0,.06,0,.09,0,.19-.02.38-.03.57-.04.18-.01.35-.02.53-.04s.35-.02.53-.03c0,0,.01,0,.02,0,0,0,0,0,.01,0,.12,0,.25-.01.37-.02.13,0,.26-.01.4-.02.13,0,.26-.01.4-.02.12,0,.24,0,.36-.01.09,0,.17,0,.26,0,0,0,0,0,0,0,0,0,.02,0,.03,0,.1,0,.19,0,.29,0,.1,0,.19,0,.29,0,.1,0,.19,0,.29,0,.09,0,.18,0,.27,0,.08,0,.15,0,.23,0,.08,0,.15,0,.23,0,.06,0,.12,0,.18,0,0,0,0,0,.01,0,.01,0,.02,0,.04,0,.08,0,.15,0,.23,0s.15,0,.23,0c.08,0,.15,0,.23,0,.07,0,.15,0,.22,0s.15,0,.22,0c.07,0,.15,0,.22,0,.07,0,.14,0,.22,0,.07,0,.14,0,.21,0,0,0,0,0,0,0,0,0,0,0,0,0,.07,0,.14,0,.22,0,.08,0,.16,0,.24,0,.09,0,.18,0,.28,0,.09,0,.18,0,.28,0,.09,0,.18,0,.28,0,.09,0,.18,0,.28.01.07,0,.14,0,.21,0,0,0,.02,0,.03,0,.03,0,.07,0,.1,0,.23.01.46.02.69.03.21.01.43.03.64.04.16.01.33.02.49.03.08,0,.15,0,.23.02.24.02.48.04.71.06.1,0,.2.02.31.03.1,0,.2.02.3.03,0,0,0,0,0,0,0,0,0,0,0,0,.1,0,.19.02.29.03.1.01.2.02.3.03.09,0,.17.02.26.03.08,0,.16.02.24.03.08,0,.16.02.24.03.08,0,.16.02.24.03.03,0,.06,0,.09.01,0,0,.01,0,.02,0,.04,0,.09.01.13.02.08.01.16.02.24.03.09.01.18.02.27.04.09.01.18.02.26.04.09.01.18.03.26.04.09.01.17.03.26.04.05,0,.1.02.15.02.01,0,.02,0,.03,0,.04,0,.07.01.11.02.12.02.24.04.35.06s.23.04.35.06c.12.02.23.04.34.06.11.02.22.04.33.06.02,0,.04,0,.06.01.03,0,.06.01.09.02.17.03.33.07.5.1.19.04.37.08.56.12.07.02.14.03.2.05.05.01.09.02.14.03.09.02.19.04.28.07.22.05.43.11.64.17.08.02.17.05.25.07.05.02.11.03.16.05.07.02.15.04.22.06.2.06.39.12.57.18.12.04.23.08.34.12.06.02.13.04.19.07.16.06.32.12.47.18.05.02.1.04.15.06.04.02.08.03.11.05.04.02.08.03.12.05,0,0,.02,0,.03.01,0,0,.01,0,.02,0,.13.06.26.12.38.18.03.02.07.03.1.05.03.01.06.03.09.04.05.03.11.06.16.08.03.02.06.03.09.05.02.01.04.02.06.03.06.03.11.06.17.09.03.02.05.03.07.05.02.01.05.03.07.04.05.03.1.06.14.09.07.04.13.09.19.13.01,0,.02.02.03.02.01,0,.02.02.03.02.02.01.03.03.05.04.02.01.04.03.05.04.04.03.08.07.12.1.07.06.14.13.2.19,0,0,.02.02.03.03,0,0,.01,0,.01.01,0,.01.02.02.02.03.04.04.08.09.11.13.05.07.1.14.14.21,0,0,0,0,0,0,0,0,0,0,0,.01.01.02.02.03.03.05,0,.02.02.04.03.05.02.03.04.07.05.1.02.04.02.08.04.11,0,.02.02.05.02.07,0,.02.01.03.02.05,0,.02,0,.05,0,.07,0,.02,0,.04,0,.07,0,.04.01.08.02.11,0,.01,0,.03,0,.04h0s0,.51,0,.51c.19,9.66.26,20.04.27,30.8l20.16,3.56,71.13-18.68-34.99-15.14C176.6,17.5,148.14,0,115.6,0,72.17,0,36.04,31.16,28.29,72.34l22.86-6.3Z"/>
      <path class="cls-1" d="m174.78,80.75l6.43,1.13.1,19.35-4.93,1.81-5.85-1.03-34.54,22.58c.05,17.55-.06,34.92-.6,50.94,39.55-9,69.07-44.38,69.07-86.65,0-5.31-.47-10.51-1.37-15.56l-28.32,7.44Z"/>
      <path class="cls-1" d="m97.21,175.5c0-1.78.02-3.58.03-5.39l.03-4.9c.02-4.21.04-8.49.07-12.83l.1-18.77c0-1.87.02-3.75.03-5.63l.04-6.99-38.72-38.69-7.55-1.33-.03-6.65L0,88.43l28.05,15.75c6.21,35.78,33.82,64.2,69.16,71.64v-.31Z"/>
    </g>
  </g>
</svg>